Coordinates
version=1
nRows=27
nColumns=12
inDegrees=yes

Units are S.I. units (second, meters, Newtons, ...)
Angles are in degrees

endheader
time	SC_y	SC_z	SC_x	AC_y	AC_z	AC_x	GH_y	GH_z	GH_yy	EL_x	PS_y
       0.0              -42.58          12.63          20.12          58.06         -18.48         0.8567         -81.92          39.31         -111.0          26.25          135.7
  0.002872              -42.58          12.63          20.12          58.06         -18.47         0.8562         -81.93           39.3         -111.0          26.27          135.7
  0.005743              -42.59          12.63          20.12          58.05         -18.47         0.8557         -81.93           39.3         -111.0          26.29          135.6
  0.008615              -42.59          12.64          20.12          58.05         -18.47         0.8552         -81.93           39.3         -110.9           26.3          135.6
   0.01149              -42.59          12.64          20.12          58.05         -18.46         0.8546         -81.94           39.3         -110.9          26.32          135.6
   0.01436              -42.59          12.64          20.12          58.04         -18.46          0.854         -81.94          39.29         -110.9          26.34          135.6
   0.01723              -42.59          12.65          20.11          58.04         -18.45         0.8533         -81.94          39.29         -110.9          26.36          135.6
    0.0201              -42.59          12.65          20.11          58.04         -18.45         0.8526         -81.95          39.29         -110.9          26.39          135.5
   0.02297              -42.59          12.66          20.11          58.03         -18.44         0.8518         -81.95          39.28         -110.9          26.41          135.5
   0.02585               -42.6          12.66          20.11          58.03         -18.44          0.851         -81.96          39.28         -110.9          26.44          135.5
   0.02872               -42.6          12.67          20.11          58.02         -18.43         0.8501         -81.96          39.27         -110.8          26.47          135.5
   0.03159               -42.6          12.68          20.11          58.02         -18.43         0.8492         -81.97          39.27         -110.8           26.5          135.4
   0.03446               -42.6          12.68           20.1          58.01         -18.42         0.8482         -81.97          39.27         -110.8          26.53          135.4
   0.03733              -42.61          12.69           20.1          58.01         -18.41         0.8471         -81.98          39.26         -110.8          26.57          135.4
    0.0402              -42.61           12.7           20.1           58.0         -18.41         0.8459         -81.98          39.25         -110.8          26.61          135.3
   0.04308              -42.61          12.71           20.1           58.0          -18.4         0.8446         -81.99          39.25         -110.7          26.65          135.3
   0.04595              -42.62          12.71          20.09          57.99         -18.39         0.8432          -82.0          39.24         -110.7           26.7          135.3
   0.04882              -42.62          12.72          20.09          57.98         -18.38         0.8417         -82.01          39.23         -110.7          26.75          135.2
   0.05169              -42.62          12.74          20.09          57.97         -18.37           0.84         -82.02          39.23         -110.7           26.8          135.2
   0.05456              -42.63          12.75          20.08          57.96         -18.35         0.8382         -82.03          39.22         -110.6          26.86          135.1
   0.05743              -42.63          12.76          20.08          57.95         -18.34         0.8362         -82.04          39.21         -110.6          26.93          135.1
   0.06031              -42.64          12.78          20.08          57.94         -18.33          0.834         -82.05           39.2         -110.6           27.0          135.0
   0.06318              -42.64          12.79          20.07          57.93         -18.31         0.8315         -82.06          39.18         -110.5          27.08          134.9
   0.06605              -42.65          12.81          20.07          57.92         -18.29         0.8288         -82.08          39.17         -110.5          27.17          134.8
   0.06892              -42.66          12.83          20.06           57.9         -18.27         0.8258          -82.1          39.16         -110.4          27.26          134.7
   0.07179              -42.67          12.85          20.05          57.89         -18.25         0.8225         -82.11          39.14         -110.4          27.37          134.6
   0.07466              -42.67          12.88          20.04          57.87         -18.22         0.8187         -82.14          39.12         -110.3           27.5          134.5
